# xmcd
#
# Track frame offsets:
#	150
#	20740
#	44499
#	64002
#	82439
#	105963
#	122863
#	140453
#
# Disc length: 2171 seconds
#
# Revision: 1
# Processed by: cddbd v1.5.2PL0 Copyright (c) Steve Scherf et al.
# Submitted via: EZCDAudioConverter 1.3.4.1
#
DISCID=71087908
DTITLE=Will Downing - Euphoria
DYEAR=2014
DGENRE=R&B
TTITLE0=Too High
TTITLE1=Turn Off the Lights
TTITLE2=Heaven in Your Eyes
TTITLE3=Lush Life
TTITLE4=She's Gone
TTITLE5=Meu Bem Querer
TTITLE6=If I Were a Magician
TTITLE7=You Can Bring Me Flowers
EXTD=
EXTT0=
EXTT1=
EXTT2=
EXTT3=
EXTT4=
EXTT5=
EXTT6=
EXTT7=
PLAYORDER=
